<svg xmlns="http://www.w3.org/2000/svg" xmlns:xlink="http://www.w3.org/1999/xlink" id="Layer_1" width="180" height="141" x="0" y="0" enable-background="new 0 0 180 141" version="1.1" viewBox="0 0 180 141" xml:space="preserve"><path fill="#FFF" d="M0,134.5v-12.8c0-1.733,0.633-3.233,1.9-4.5s2.767-1.9,4.5-1.9h166.4c1.733,0,3.233,0.634,4.5,1.9	s1.9,2.767,1.9,4.5v12.8c0,1.733-0.634,3.233-1.9,4.5s-2.767,1.9-4.5,1.9H6.4c-1.733,0-3.233-0.634-4.5-1.9S0,136.233,0,134.5z M0,96.1V83.3c0-1.733,0.633-3.233,1.9-4.5S4.667,76.9,6.4,76.9h166.4c1.733,0,3.233,0.633,4.5,1.899s1.9,2.767,1.9,4.5v12.8	c0,1.734-0.634,3.234-1.9,4.5c-1.267,1.268-2.767,1.9-4.5,1.9H6.4c-1.733,0-3.233-0.633-4.5-1.9C0.633,99.334,0,97.834,0,96.1z M0,57.7V44.9c0-1.733,0.633-3.233,1.9-4.5s2.767-1.9,4.5-1.9h166.4c1.733,0,3.233,0.633,4.5,1.9s1.9,2.767,1.9,4.5v12.8	c0,1.733-0.634,3.233-1.9,4.5s-2.767,1.9-4.5,1.9H6.4c-1.733,0-3.233-0.633-4.5-1.9S0,59.434,0,57.7z M0,19.3V6.5	C0,4.767,0.633,3.267,1.9,2s2.767-1.9,4.5-1.9h166.4c1.733,0,3.233,0.633,4.5,1.9s1.9,2.767,1.9,4.5v12.8	c0,1.733-0.634,3.233-1.9,4.5c-1.267,1.267-2.767,1.9-4.5,1.9H6.4c-1.733,0-3.233-0.633-4.5-1.9C0.633,22.533,0,21.033,0,19.3z"/></svg>