<svg xmlns="http://www.w3.org/2000/svg" xmlns:xlink="http://www.w3.org/1999/xlink" id="Layer_1" width="10" height="10" x="0" y="0" enable-background="new 0 0 10 10" version="1.1" viewBox="0 0 10 10" xml:space="preserve"><path fill="#FFF" d="M5,0C2.239,0,0,2.24,0,5c0,2.762,2.238,5,5,5c2.762,0,5-2.238,5-5C10,2.24,7.762,0,5,0 M5.866,7.6H4.134	V6.732h1.731L5.866,7.6L5.866,7.6z M5.747,5.441C5.702,5.675,5.47,5.866,5.232,5.866H4.77c-0.238,0-0.47-0.19-0.516-0.425	L3.751,2.828C3.708,2.592,3.866,2.401,4.104,2.401h1.792c0.236,0,0.396,0.191,0.353,0.427L5.747,5.441z"/></svg>